<svg width="16" height="20" viewBox="0 0 16 20" fill="none" xmlns="http://www.w3.org/2000/svg">
<path d="M10.5 0.5C11.9277 0.5 13.2846 0.824676 14.502 1.39355C11.7814 3.28905 10 6.43123 10 10C10 13.5686 11.7816 16.7099 14.502 18.6055C13.2845 19.1745 11.9279 19.5 10.5 19.5C5.25614 19.5 1 15.2439 1 10C1 4.75614 5.25614 0.5 10.5 0.5ZM10.5 1.5C5.81386 1.5 2 5.31386 2 10C2 14.6861 5.81386 18.5 10.5 18.5C10.859 18.5 11.2248 18.4794 11.585 18.4248L12.4932 18.2871L11.8848 17.5986C10.0541 15.5283 9 12.8258 9 10C9 7.17425 10.0541 4.47166 11.8848 2.40137L12.4932 1.71289L11.585 1.5752C11.2248 1.52063 10.859 1.5 10.5 1.5Z" fill="currentColor" stroke="currentColor"/>
</svg>
