<svg width="18" height="18" viewBox="0 0 18 18" fill="none" xmlns="http://www.w3.org/2000/svg">
<path d="M8.16675 13.9998H9.83342V12.3332H8.16675V13.9998ZM9.00008 0.666504C4.40008 0.666504 0.666748 4.39984 0.666748 8.99984C0.666748 13.5998 4.40008 17.3332 9.00008 17.3332C13.6001 17.3332 17.3334 13.5998 17.3334 8.99984C17.3334 4.39984 13.6001 0.666504 9.00008 0.666504ZM9.00008 15.6665C5.32508 15.6665 2.33341 12.6748 2.33341 8.99984C2.33341 5.32484 5.32508 2.33317 9.00008 2.33317C12.6751 2.33317 15.6667 5.32484 15.6667 8.99984C15.6667 12.6748 12.6751 15.6665 9.00008 15.6665ZM9.00008 3.99984C7.15841 3.99984 5.66675 5.4915 5.66675 7.33317H7.33342C7.33342 6.4165 8.08342 5.6665 9.00008 5.6665C9.91675 5.6665 10.6667 6.4165 10.6667 7.33317C10.6667 8.99984 8.16675 8.7915 8.16675 11.4998H9.83342C9.83342 9.62484 12.3334 9.4165 12.3334 7.33317C12.3334 5.4915 10.8417 3.99984 9.00008 3.99984Z" fill="currentColor"/>
</svg>
