<svg width="20" height="20" viewBox="0 0 20 20" fill="none" xmlns="http://www.w3.org/2000/svg">
<path d="M16.9172 16.8032L16.4495 17.271L13.9534 14.7759L13.7209 14.5435L13.4163 14.6646C12.3573 15.0834 11.2029 15.3129 10.0002 15.313C6.11615 15.313 2.7884 12.9388 1.37427 9.56104C1.98946 8.08301 2.97793 6.80361 4.21704 5.83057L4.6604 5.48291L2.38013 3.20264L2.85083 2.729L16.9172 16.8032ZM4.78931 6.22314C3.72444 7.03279 2.82096 8.07564 2.20044 9.34326L2.09302 9.56299L2.20044 9.78271C3.65898 12.7617 6.65012 14.646 10.0002 14.646C10.8412 14.646 11.6521 14.5223 12.4231 14.312L13.2542 14.0854L12.6448 13.4761L11.8284 12.6587L11.5901 12.4204L11.2786 12.5522C10.8891 12.7181 10.456 12.8129 10.0002 12.813C8.20983 12.813 6.75042 11.3534 6.75024 9.56299C6.75024 9.10758 6.84354 8.67238 7.01099 8.27197L7.14087 7.9624L6.90356 7.72607L5.44556 6.26709L5.13599 5.9585L4.78931 6.22314ZM10.0002 3.81299C13.8837 3.81312 17.2109 6.18594 18.6252 9.56299C18.1382 10.7305 17.4207 11.7712 16.5286 12.6421L16.0637 12.1772C16.7641 11.4968 17.3585 10.6938 17.8 9.78076L17.9055 9.56104L17.7991 9.34326C16.3406 6.36439 13.3502 4.47913 10.0002 4.479C9.4857 4.479 8.98936 4.53827 8.51001 4.62354L7.92993 4.04346C8.59625 3.89313 9.28818 3.81299 10.0002 3.81299ZM7.42505 9.44678C7.42295 9.46353 7.41626 9.50802 7.41626 9.56299C7.41644 10.989 8.57421 12.146 10.0002 12.146C10.1053 12.1459 10.1988 12.1203 10.2209 12.1147L11.0784 11.8999L10.4534 11.2759L7.42505 8.24756V9.44678ZM10.2063 6.31982C11.835 6.42199 13.1391 7.72399 13.2346 9.34814L12.3108 8.42529C12.0599 7.91237 11.6438 7.49595 11.1311 7.24463L10.2063 6.31982Z" fill="currentColor" stroke="currentColor"/>
</svg>
