<svg width="16" height="20" viewBox="0 0 16 20" fill="none" xmlns="http://www.w3.org/2000/svg">
<path d="M9.41162 18.25C9.20402 18.8302 8.64891 19.2498 8.00049 19.25C7.34505 19.25 6.79296 18.831 6.5874 18.25H9.41162ZM8.00049 0.75C8.55414 0.750234 9.00049 1.19629 9.00049 1.75V2.8252L9.38428 2.91602C11.9681 3.53034 13.5005 5.85482 13.5005 8.75V13.957L13.647 14.1035L14.936 15.3936C15.2532 15.7107 15.0311 16.25 14.5796 16.25H1.40967C0.97372 16.2497 0.743124 15.7144 1.06396 15.3936L2.50049 13.957V8.75C2.50049 5.84437 4.02263 3.53138 6.61572 2.91699L7.00049 2.8252V1.75C7.00049 1.19614 7.44663 0.75 8.00049 0.75ZM8.00049 3.75C6.60845 3.75 5.46793 4.31954 4.68408 5.24707C3.90708 6.16653 3.50049 7.41192 3.50049 8.75V15.25H12.5005V8.75C12.5005 7.4119 12.0929 6.16653 11.3159 5.24707C10.5322 4.31964 9.39233 3.75012 8.00049 3.75Z" fill="currentColor" stroke="currentColor"/>
</svg>
