<svg width="18" height="16" viewBox="0 0 18 16" fill="none" xmlns="http://www.w3.org/2000/svg">
<path d="M15.6667 3.41683H13.8501C13.9417 3.1585 14.0001 2.87516 14.0001 2.5835C14.0001 1.20016 12.8834 0.0834961 11.5001 0.0834961C10.6251 0.0834961 9.86675 0.533496 9.41675 1.2085L9.00008 1.76683L8.58342 1.20016C8.13342 0.533496 7.37508 0.0834961 6.50008 0.0834961C5.11675 0.0834961 4.00008 1.20016 4.00008 2.5835C4.00008 2.87516 4.05841 3.1585 4.15008 3.41683H2.33341C1.40841 3.41683 0.675081 4.1585 0.675081 5.0835L0.666748 14.2502C0.666748 15.1752 1.40841 15.9168 2.33341 15.9168H15.6667C16.5917 15.9168 17.3334 15.1752 17.3334 14.2502V5.0835C17.3334 4.1585 16.5917 3.41683 15.6667 3.41683ZM11.5001 1.75016C11.9584 1.75016 12.3334 2.12516 12.3334 2.5835C12.3334 3.04183 11.9584 3.41683 11.5001 3.41683C11.0417 3.41683 10.6667 3.04183 10.6667 2.5835C10.6667 2.12516 11.0417 1.75016 11.5001 1.75016ZM6.50008 1.75016C6.95842 1.75016 7.33342 2.12516 7.33342 2.5835C7.33342 3.04183 6.95842 3.41683 6.50008 3.41683C6.04175 3.41683 5.66675 3.04183 5.66675 2.5835C5.66675 2.12516 6.04175 1.75016 6.50008 1.75016ZM15.6667 14.2502H2.33341V12.5835H15.6667V14.2502ZM15.6667 10.0835H2.33341V5.0835H6.56675L4.83342 7.44183L6.18341 8.41683L9.00008 4.5835L11.8167 8.41683L13.1667 7.44183L11.4334 5.0835H15.6667V10.0835Z" fill="currentColor"/>
</svg>
