<svg width="18" height="12" viewBox="0 0 18 12" fill="none" xmlns="http://www.w3.org/2000/svg">
<path d="M6.50008 7.45817C4.55008 7.45817 0.666748 8.43317 0.666748 10.3748V11.8332H12.3334V10.3748C12.3334 8.43317 8.45008 7.45817 6.50008 7.45817ZM2.61675 10.1665C3.31675 9.68317 5.00841 9.12484 6.50008 9.12484C7.99175 9.12484 9.68342 9.68317 10.3834 10.1665H2.61675ZM6.50008 5.99984C8.10842 5.99984 9.41675 4.6915 9.41675 3.08317C9.41675 1.47484 8.10842 0.166504 6.50008 0.166504C4.89175 0.166504 3.58341 1.47484 3.58341 3.08317C3.58341 4.6915 4.89175 5.99984 6.50008 5.99984ZM6.50008 1.83317C7.19175 1.83317 7.75008 2.3915 7.75008 3.08317C7.75008 3.77484 7.19175 4.33317 6.50008 4.33317C5.80841 4.33317 5.25008 3.77484 5.25008 3.08317C5.25008 2.3915 5.80841 1.83317 6.50008 1.83317ZM12.3667 7.50817C13.3334 8.20817 14.0001 9.1415 14.0001 10.3748V11.8332H17.3334V10.3748C17.3334 8.6915 14.4167 7.73317 12.3667 7.50817ZM11.5001 5.99984C13.1084 5.99984 14.4167 4.6915 14.4167 3.08317C14.4167 1.47484 13.1084 0.166504 11.5001 0.166504C11.0501 0.166504 10.6334 0.274837 10.2501 0.45817C10.7751 1.19984 11.0834 2.10817 11.0834 3.08317C11.0834 4.05817 10.7751 4.9665 10.2501 5.70817C10.6334 5.8915 11.0501 5.99984 11.5001 5.99984Z" fill="currentColor"/>
</svg>
