<svg width="32" height="32" viewBox="0 0 32 32" fill="none" xmlns="http://www.w3.org/2000/svg">
<path d="M31.5177 19.8705C29.3808 28.442 20.6992 33.6584 12.1267 31.521C3.55778 29.3841 -1.65868 20.702 0.479177 12.1312C2.61515 3.5587 11.2967 -1.65814 19.8666 0.478775C28.4385 2.61569 33.6546 11.2987 31.5175 19.8706L31.5176 19.8705H31.5177Z" fill="#50AF95"/>
<path fill-rule="evenodd" clip-rule="evenodd" d="M18.0246 17.8138C17.9115 17.8223 17.327 17.8572 16.0231 17.8572C14.986 17.8572 14.2497 17.8261 13.9914 17.8138C9.98361 17.6375 6.99215 16.9398 6.99215 16.1045C6.99215 15.2692 9.98361 14.5725 13.9914 14.3934V17.119C14.2535 17.1378 15.004 17.1821 16.041 17.1821C17.2855 17.1821 17.9087 17.1303 18.0209 17.1199V14.3953C22.0202 14.5734 25.005 15.2711 25.005 16.1045C25.005 16.938 22.0211 17.6356 18.0209 17.8129L18.0246 17.8138ZM18.0246 14.1134V11.6744H23.6059V7.95508H8.4101V11.6744H13.9905V14.1124C9.45471 14.3208 6.0437 15.2193 6.0437 16.2959C6.0437 17.3726 9.45471 18.2701 13.9905 18.4794V26.2951H18.0237V18.4766C22.5491 18.2682 25.9544 17.3707 25.9544 16.295C25.9544 15.2193 22.5519 14.3217 18.0237 14.1124L18.0246 14.1134Z" fill="white"/>
</svg>
